<svg xmlns:xlink="http://www.w3.org/1999/xlink" viewBox="0 0 5927 4233" style="shape-rendering:geometricPrecision; text-rendering:geometricPrecision; image-rendering:optimizeQuality; fill-rule:evenodd; clip-rule:evenodd" version="1.1" height="42.3332mm" width="59.2666mm" xml:space="preserve" xmlns="http://www.w3.org/2000/svg">
 <defs>
  <style type="text/css">
   
    .str0 {stroke:#FF5E5E;stroke-width:520;stroke-linecap:round;stroke-linejoin:round}
    .fil0 {fill:none}
   
  </style>
 </defs>
 <g id="图层_x0020_1">
  <metadata id="CorelCorpID_0Corel-Layer"></metadata>
  <rect height="4233" width="5927" class="fil0"></rect>
  <path d="M3151 1754c-70,-145 -140,-290 -278,-344 -138,-53 -343,-14 -474,135 -130,148 -184,408 -69,612 115,204 401,354 655,340 254,-15 477,-193 621,-458 143,-264 207,-615 4,-922 -203,-306 -674,-568 -1115,-497 -440,71 -851,475 -1007,905 -156,430 -57,887 168,1224 226,338 579,558 917,630 339,72 665,-3 940,-148 275,-146 499,-362 619,-563 119,-201 134,-387 148,-573" class="fil0 str0"></path>
 </g>
</svg>
